<svg width="512" height="512" viewBox="0 0 512 512" fill="none" xmlns="http://www.w3.org/2000/svg">
  <defs>
    <linearGradient id="paint0_linear" x1="120" y1="200" x2="392" y2="340" gradientUnits="userSpaceOnUse">
      <stop stop-color="#00F0FF" />
      <stop offset="0.5" stop-color="#7000FF" />
      <stop offset="1" stop-color="#FF00D6" />
    </linearGradient>

    <filter id="glow" x="-50%" y="-50%" width="200%" height="200%">
      <feGaussianBlur stdDeviation="18" result="blur" />
      <feComposite in="SourceGraphic" in2="blur" operator="over" />
    </filter>
  </defs>
  
  <g filter="url(#glow)">
    <path d="M120 320C120 320 130 200 256 200C382 200 392 320 392 320L360 340H152L120 320Z" fill="url(#paint0_linear)" />
    
    <circle cx="170" cy="345" r="15" fill="url(#paint0_linear)" />
    <circle cx="342" cy="345" r="15" fill="url(#paint0_linear)" />

    <path d="M256 160C280 160 300 180 300 204C300 228 280 248 256 248C232 248 212 228 212 204C212 180 232 160 256 160Z" stroke="white" stroke-width="3" stroke-dasharray="8 4" opacity="0.6" />
    
    <path d="M100 280Q180 240 256 280T412 280" stroke="white" stroke-width="5" stroke-linecap="round" opacity="0.4" />
  </g>
</svg>
